<svg width="29" height="30" viewBox="0 0 29 30" fill="none" xmlns="http://www.w3.org/2000/svg">
<g clip-path="url(#clip0_12_1097)">
<path d="M8.45831 14.9677H12.0833V19.957H8.45831V14.9677Z" stroke="#3D352C" stroke-width="1.5" stroke-linecap="round" stroke-linejoin="round"/>
<path d="M12.0833 7.48389H4.83333C4.51286 7.48389 4.20552 7.6153 3.97891 7.84922C3.75231 8.08313 3.625 8.40039 3.625 8.7312V23.6989C3.625 24.0297 3.75231 24.347 3.97891 24.5809C4.20552 24.8148 4.51286 24.9463 4.83333 24.9463H24.1667C24.4871 24.9463 24.7945 24.8148 25.0211 24.5809C25.2477 24.347 25.375 24.0297 25.375 23.6989V8.7312C25.375 8.40039 25.2477 8.08313 25.0211 7.84922C24.7945 7.6153 24.4871 7.48389 24.1667 7.48389H16.9167" stroke="#3D352C" stroke-width="1.5" stroke-linecap="round" stroke-linejoin="round"/>
<path d="M12.0833 4.98926C12.0833 4.65845 12.2106 4.34119 12.4372 4.10727C12.6638 3.87336 12.9712 3.74194 13.2916 3.74194H15.7083C16.0288 3.74194 16.3361 3.87336 16.5627 4.10727C16.7893 4.34119 16.9166 4.65845 16.9166 4.98926V8.73119C16.9166 9.062 16.7893 9.37926 16.5627 9.61317C16.3361 9.84709 16.0288 9.9785 15.7083 9.9785H13.2916C12.9712 9.9785 12.6638 9.84709 12.4372 9.61317C12.2106 9.37926 12.0833 9.062 12.0833 8.73119V4.98926Z" stroke="#3D352C" stroke-width="1.5" stroke-linecap="round" stroke-linejoin="round"/>
<path d="M16.9167 19.957H19.3334" stroke="#3D352C" stroke-width="1.5" stroke-linecap="round" stroke-linejoin="round"/>
<path d="M16.9167 14.9677H21.75" stroke="#3D352C" stroke-width="1.5" stroke-linecap="round" stroke-linejoin="round"/>
</g>
<defs>
<clipPath id="clip0_12_1097">
<rect width="29" height="29.9355" fill="white"/>
</clipPath>
</defs>
</svg>
