<svg width="24" height="25" viewBox="0 0 24 25" fill="none" xmlns="http://www.w3.org/2000/svg">
<path d="M20.5 2.12909H3.5C2.67158 2.12909 2 2.82233 2 3.67748V21.2259C2 22.081 2.67158 22.7743 3.5 22.7743H20.5C21.3285 22.7743 22 22.081 22 21.2259V3.67748C22 2.82233 21.3285 2.12909 20.5 2.12909Z" stroke="#333333" stroke-width="2" stroke-linejoin="round"/>
<path d="M6 9.89871C7.66245 7.8342 9.66245 6.80194 12 6.80194C14.3375 6.80194 16.3376 7.8342 18 9.89871" stroke="#333333" stroke-width="2" stroke-linecap="round"/>
<path d="M12 16.0645C12.8284 16.0645 13.5 15.3713 13.5 14.5162C13.5 13.661 12.8284 12.9678 12 12.9678C11.1715 12.9678 10.5 13.661 10.5 14.5162C10.5 15.3713 11.1715 16.0645 12 16.0645Z" fill="#333333"/>
<path d="M9.5 10.9033L12.0042 14.5162" stroke="#333333" stroke-width="2" stroke-linecap="round"/>
</svg>
