<svg width="24" height="25" viewBox="0 0 24 25" fill="none" xmlns="http://www.w3.org/2000/svg">
<path d="M23 19.7097C23 20.2573 22.7893 20.7824 22.4142 21.1696C22.0391 21.5567 21.5304 21.7742 21 21.7742H3C2.46957 21.7742 1.96086 21.5567 1.58579 21.1696C1.21071 20.7824 1 20.2573 1 19.7097V8.35489C1 7.80735 1.21071 7.28223 1.58579 6.89506C1.96086 6.50789 2.46957 6.29038 3 6.29038H7L9 3.1936H15L17 6.29038H21C21.5304 6.29038 22.0391 6.50789 22.4142 6.89506C22.7893 7.28223 23 7.80735 23 8.35489V19.7097Z" stroke="#3D352C" stroke-width="2" stroke-linecap="round" stroke-linejoin="round"/>
<path d="M12 17.6452C14.2091 17.6452 16 15.7966 16 13.5162C16 11.2358 14.2091 9.38715 12 9.38715C9.79086 9.38715 8 11.2358 8 13.5162C8 15.7966 9.79086 17.6452 12 17.6452Z" stroke="#3D352C" stroke-width="2" stroke-linecap="round" stroke-linejoin="round"/>
</svg>
