<svg width="24" height="25" viewBox="0 0 24 25" fill="none" xmlns="http://www.w3.org/2000/svg">
<path d="M11 4.22583H4C3.46957 4.22583 2.96086 4.44334 2.58579 4.83051C2.21071 5.21768 2 5.7428 2 6.29035V20.742C2 21.2895 2.21071 21.8146 2.58579 22.2018C2.96086 22.589 3.46957 22.8065 4 22.8065H18C18.5304 22.8065 19.0391 22.589 19.4142 22.2018C19.7893 21.8146 20 21.2895 20 20.742V13.5162" stroke="#3D352C" stroke-width="2" stroke-linecap="round" stroke-linejoin="round"/>
<path d="M18.5 2.67743C18.8978 2.26678 19.4374 2.03607 20 2.03607C20.5626 2.03607 21.1022 2.26678 21.5 2.67743C21.8978 3.08809 22.1213 3.64506 22.1213 4.22582C22.1213 4.80658 21.8978 5.36355 21.5 5.77421L12 15.5807L8 16.6129L9 12.4839L18.5 2.67743Z" stroke="#3D352C" stroke-width="2" stroke-linecap="round" stroke-linejoin="round"/>
</svg>
